<mxfile host="app.diagrams.net" modified="2023-10-30T16:00:09.932Z" agent="Mozilla/5.0 (Windows NT 10.0; Win64; x64) AppleWebKit/537.36 (KHTML, like Gecko) Chrome/118.0.0.0 Safari/537.36" etag="arvjZ8ZjUIDizbpVEG3D" version="22.0.8" type="device">
  <diagram id="C5RBs43oDa-KdzZeNtuy" name="Page-1">
    <mxGraphModel dx="2049" dy="1129" grid="1" gridSize="10" guides="1" tooltips="1" connect="1" arrows="1" fold="1" page="1" pageScale="1" pageWidth="1654" pageHeight="1169" background="none" math="0" shadow="0">
      <root>
        <mxCell id="WIyWlLk6GJQsqaUBKTNV-0" />
        <mxCell id="WIyWlLk6GJQsqaUBKTNV-1" parent="WIyWlLk6GJQsqaUBKTNV-0" />
        <mxCell id="SlFKmTMCJMUZYJhXCzE0-25" value="main" style="swimlane;fontStyle=3;childLayout=stackLayout;horizontal=1;startSize=30;horizontalStack=0;resizeParent=1;resizeParentMax=0;resizeLast=0;collapsible=1;marginBottom=0;whiteSpace=wrap;html=1;fontSize=16;" parent="WIyWlLk6GJQsqaUBKTNV-1" vertex="1">
          <mxGeometry x="760" y="446" width="180" height="480" as="geometry">
            <mxRectangle x="680" y="370" width="80" height="30" as="alternateBounds" />
          </mxGeometry>
        </mxCell>
        <mxCell id="SlFKmTMCJMUZYJhXCzE0-26" value="main_id" style="text;align=left;verticalAlign=middle;spacingLeft=4;spacingRight=4;overflow=hidden;points=[[0,0.5],[1,0.5]];portConstraint=eastwest;rotatable=0;whiteSpace=wrap;html=1;fontSize=20;fontStyle=3;fillColor=#b0e3e6;strokeColor=#0e8088;" parent="SlFKmTMCJMUZYJhXCzE0-25" vertex="1">
          <mxGeometry y="30" width="180" height="30" as="geometry" />
        </mxCell>
        <mxCell id="SlFKmTMCJMUZYJhXCzE0-27" value="candidate_id" style="text;strokeColor=#006EAF;fillColor=#1ba1e2;align=left;verticalAlign=middle;spacingLeft=4;spacingRight=4;overflow=hidden;points=[[0,0.5],[1,0.5]];portConstraint=eastwest;rotatable=0;whiteSpace=wrap;html=1;fontSize=16;fontColor=#ffffff;fontStyle=1" parent="SlFKmTMCJMUZYJhXCzE0-25" vertex="1">
          <mxGeometry y="60" width="180" height="30" as="geometry" />
        </mxCell>
        <mxCell id="SlFKmTMCJMUZYJhXCzE0-28" value="company_id" style="text;strokeColor=#2D7600;fillColor=#60a917;align=left;verticalAlign=middle;spacingLeft=4;spacingRight=4;overflow=hidden;points=[[0,0.5],[1,0.5]];portConstraint=eastwest;rotatable=0;whiteSpace=wrap;html=1;fontSize=16;fontColor=#ffffff;fontStyle=1" parent="SlFKmTMCJMUZYJhXCzE0-25" vertex="1">
          <mxGeometry y="90" width="180" height="30" as="geometry" />
        </mxCell>
        <mxCell id="SlFKmTMCJMUZYJhXCzE0-32" value="task_type_id" style="text;strokeColor=#B09500;fillColor=#e3c800;align=left;verticalAlign=middle;spacingLeft=4;spacingRight=4;overflow=hidden;points=[[0,0.5],[1,0.5]];portConstraint=eastwest;rotatable=0;whiteSpace=wrap;html=1;fontSize=16;fontColor=#000000;fontStyle=1" parent="SlFKmTMCJMUZYJhXCzE0-25" vertex="1">
          <mxGeometry y="120" width="180" height="30" as="geometry" />
        </mxCell>
        <mxCell id="SlFKmTMCJMUZYJhXCzE0-33" value="job_title" style="text;strokeColor=none;fillColor=none;align=left;verticalAlign=middle;spacingLeft=4;spacingRight=4;overflow=hidden;points=[[0,0.5],[1,0.5]];portConstraint=eastwest;rotatable=0;whiteSpace=wrap;html=1;fontSize=16;" parent="SlFKmTMCJMUZYJhXCzE0-25" vertex="1">
          <mxGeometry y="150" width="180" height="30" as="geometry" />
        </mxCell>
        <mxCell id="SlFKmTMCJMUZYJhXCzE0-34" value="interview_round" style="text;strokeColor=none;fillColor=none;align=left;verticalAlign=middle;spacingLeft=4;spacingRight=4;overflow=hidden;points=[[0,0.5],[1,0.5]];portConstraint=eastwest;rotatable=0;whiteSpace=wrap;html=1;fontSize=16;" parent="SlFKmTMCJMUZYJhXCzE0-25" vertex="1">
          <mxGeometry y="180" width="180" height="30" as="geometry" />
        </mxCell>
        <mxCell id="SlFKmTMCJMUZYJhXCzE0-35" value="date_time_timezone" style="text;strokeColor=none;fillColor=none;align=left;verticalAlign=middle;spacingLeft=4;spacingRight=4;overflow=hidden;points=[[0,0.5],[1,0.5]];portConstraint=eastwest;rotatable=0;whiteSpace=wrap;html=1;fontSize=16;" parent="SlFKmTMCJMUZYJhXCzE0-25" vertex="1">
          <mxGeometry y="210" width="180" height="30" as="geometry" />
        </mxCell>
        <mxCell id="SlFKmTMCJMUZYJhXCzE0-36" value="duration_in_hours" style="text;strokeColor=none;fillColor=none;align=left;verticalAlign=middle;spacingLeft=4;spacingRight=4;overflow=hidden;points=[[0,0.5],[1,0.5]];portConstraint=eastwest;rotatable=0;whiteSpace=wrap;html=1;fontSize=16;" parent="SlFKmTMCJMUZYJhXCzE0-25" vertex="1">
          <mxGeometry y="240" width="180" height="30" as="geometry" />
        </mxCell>
        <mxCell id="SlFKmTMCJMUZYJhXCzE0-37" value="deadline" style="text;strokeColor=none;fillColor=none;align=left;verticalAlign=middle;spacingLeft=4;spacingRight=4;overflow=hidden;points=[[0,0.5],[1,0.5]];portConstraint=eastwest;rotatable=0;whiteSpace=wrap;html=1;fontSize=16;" parent="SlFKmTMCJMUZYJhXCzE0-25" vertex="1">
          <mxGeometry y="270" width="180" height="30" as="geometry" />
        </mxCell>
        <mxCell id="SlFKmTMCJMUZYJhXCzE0-38" value="user_id" style="text;strokeColor=#314354;fillColor=#647687;align=left;verticalAlign=middle;spacingLeft=4;spacingRight=4;overflow=hidden;points=[[0,0.5],[1,0.5]];portConstraint=eastwest;rotatable=0;whiteSpace=wrap;html=1;fontSize=16;fontColor=#ffffff;fontStyle=1" parent="SlFKmTMCJMUZYJhXCzE0-25" vertex="1">
          <mxGeometry y="300" width="180" height="30" as="geometry" />
        </mxCell>
        <mxCell id="SlFKmTMCJMUZYJhXCzE0-39" value="assigned_date_time" style="text;strokeColor=none;fillColor=none;align=left;verticalAlign=middle;spacingLeft=4;spacingRight=4;overflow=hidden;points=[[0,0.5],[1,0.5]];portConstraint=eastwest;rotatable=0;whiteSpace=wrap;html=1;fontSize=16;" parent="SlFKmTMCJMUZYJhXCzE0-25" vertex="1">
          <mxGeometry y="330" width="180" height="30" as="geometry" />
        </mxCell>
        <mxCell id="SlFKmTMCJMUZYJhXCzE0-40" value="task_status_id" style="text;strokeColor=#C73500;fillColor=#fa6800;align=left;verticalAlign=middle;spacingLeft=4;spacingRight=4;overflow=hidden;points=[[0,0.5],[1,0.5]];portConstraint=eastwest;rotatable=0;whiteSpace=wrap;html=1;fontSize=16;fontColor=#ffffff;fontStyle=1" parent="SlFKmTMCJMUZYJhXCzE0-25" vertex="1">
          <mxGeometry y="360" width="180" height="30" as="geometry" />
        </mxCell>
        <mxCell id="SlFKmTMCJMUZYJhXCzE0-42" value="finished_date" style="text;strokeColor=none;fillColor=none;align=left;verticalAlign=middle;spacingLeft=4;spacingRight=4;overflow=hidden;points=[[0,0.5],[1,0.5]];portConstraint=eastwest;rotatable=0;whiteSpace=wrap;html=1;fontSize=16;" parent="SlFKmTMCJMUZYJhXCzE0-25" vertex="1">
          <mxGeometry y="390" width="180" height="30" as="geometry" />
        </mxCell>
        <mxCell id="SlFKmTMCJMUZYJhXCzE0-43" value="result_id" style="text;strokeColor=#b46504;fillColor=#fad7ac;align=left;verticalAlign=middle;spacingLeft=4;spacingRight=4;overflow=hidden;points=[[0,0.5],[1,0.5]];portConstraint=eastwest;rotatable=0;whiteSpace=wrap;html=1;fontSize=16;fontStyle=1" parent="SlFKmTMCJMUZYJhXCzE0-25" vertex="1">
          <mxGeometry y="420" width="180" height="30" as="geometry" />
        </mxCell>
        <mxCell id="xadqCLjYP4NTewsWqhyN-7" value="acknowledgement_id" style="text;strokeColor=#6D1F00;fillColor=#a0522d;align=left;verticalAlign=middle;spacingLeft=4;spacingRight=4;overflow=hidden;points=[[0,0.5],[1,0.5]];portConstraint=eastwest;rotatable=0;whiteSpace=wrap;html=1;fontSize=16;fontStyle=1;fontColor=#ffffff;" parent="SlFKmTMCJMUZYJhXCzE0-25" vertex="1">
          <mxGeometry y="450" width="180" height="30" as="geometry" />
        </mxCell>
        <mxCell id="SlFKmTMCJMUZYJhXCzE0-45" value="users" style="swimlane;fontStyle=0;childLayout=stackLayout;horizontal=1;startSize=30;horizontalStack=0;resizeParent=1;resizeParentMax=0;resizeLast=0;collapsible=1;marginBottom=0;whiteSpace=wrap;html=1;fontSize=16;" parent="WIyWlLk6GJQsqaUBKTNV-1" vertex="1">
          <mxGeometry x="520" y="527" width="160" height="240" as="geometry">
            <mxRectangle x="470" y="360" width="80" height="30" as="alternateBounds" />
          </mxGeometry>
        </mxCell>
        <mxCell id="SlFKmTMCJMUZYJhXCzE0-46" value="user_id" style="text;strokeColor=#314354;fillColor=#647687;align=left;verticalAlign=middle;spacingLeft=4;spacingRight=4;overflow=hidden;points=[[0,0.5],[1,0.5]];portConstraint=eastwest;rotatable=0;whiteSpace=wrap;html=1;fontSize=16;fontColor=#ffffff;fontStyle=1" parent="SlFKmTMCJMUZYJhXCzE0-45" vertex="1">
          <mxGeometry y="30" width="160" height="30" as="geometry" />
        </mxCell>
        <mxCell id="SlFKmTMCJMUZYJhXCzE0-49" value="user_name" style="text;strokeColor=none;fillColor=none;align=left;verticalAlign=middle;spacingLeft=4;spacingRight=4;overflow=hidden;points=[[0,0.5],[1,0.5]];portConstraint=eastwest;rotatable=0;whiteSpace=wrap;html=1;fontSize=16;" parent="SlFKmTMCJMUZYJhXCzE0-45" vertex="1">
          <mxGeometry y="60" width="160" height="30" as="geometry" />
        </mxCell>
        <mxCell id="SlFKmTMCJMUZYJhXCzE0-50" value="user_email" style="text;strokeColor=none;fillColor=none;align=left;verticalAlign=middle;spacingLeft=4;spacingRight=4;overflow=hidden;points=[[0,0.5],[1,0.5]];portConstraint=eastwest;rotatable=0;whiteSpace=wrap;html=1;fontSize=16;" parent="SlFKmTMCJMUZYJhXCzE0-45" vertex="1">
          <mxGeometry y="90" width="160" height="30" as="geometry" />
        </mxCell>
        <mxCell id="qCeVFrvBa6YPwtFDpKTf-0" value="user_password" style="text;strokeColor=none;fillColor=none;align=left;verticalAlign=middle;spacingLeft=4;spacingRight=4;overflow=hidden;points=[[0,0.5],[1,0.5]];portConstraint=eastwest;rotatable=0;whiteSpace=wrap;html=1;fontSize=16;" vertex="1" parent="SlFKmTMCJMUZYJhXCzE0-45">
          <mxGeometry y="120" width="160" height="30" as="geometry" />
        </mxCell>
        <mxCell id="qCeVFrvBa6YPwtFDpKTf-1" value="admin_flag" style="text;strokeColor=none;fillColor=none;align=left;verticalAlign=middle;spacingLeft=4;spacingRight=4;overflow=hidden;points=[[0,0.5],[1,0.5]];portConstraint=eastwest;rotatable=0;whiteSpace=wrap;html=1;fontSize=16;" vertex="1" parent="SlFKmTMCJMUZYJhXCzE0-45">
          <mxGeometry y="150" width="160" height="30" as="geometry" />
        </mxCell>
        <mxCell id="SlFKmTMCJMUZYJhXCzE0-51" value="emp_status_id" style="text;strokeColor=#36393d;fillColor=#ffff88;align=left;verticalAlign=middle;spacingLeft=4;spacingRight=4;overflow=hidden;points=[[0,0.5],[1,0.5]];portConstraint=eastwest;rotatable=0;whiteSpace=wrap;html=1;fontSize=16;fontStyle=1" parent="SlFKmTMCJMUZYJhXCzE0-45" vertex="1">
          <mxGeometry y="180" width="160" height="30" as="geometry" />
        </mxCell>
        <mxCell id="SlFKmTMCJMUZYJhXCzE0-52" value="ind_status_id" style="text;strokeColor=#56517e;fillColor=#d0cee2;align=left;verticalAlign=middle;spacingLeft=4;spacingRight=4;overflow=hidden;points=[[0,0.5],[1,0.5]];portConstraint=eastwest;rotatable=0;whiteSpace=wrap;html=1;fontSize=16;fontStyle=1" parent="SlFKmTMCJMUZYJhXCzE0-45" vertex="1">
          <mxGeometry y="210" width="160" height="30" as="geometry" />
        </mxCell>
        <mxCell id="SlFKmTMCJMUZYJhXCzE0-53" value="task_types" style="swimlane;fontStyle=0;childLayout=stackLayout;horizontal=1;startSize=30;horizontalStack=0;resizeParent=1;resizeParentMax=0;resizeLast=0;collapsible=1;marginBottom=0;whiteSpace=wrap;html=1;fontSize=16;" parent="WIyWlLk6GJQsqaUBKTNV-1" vertex="1">
          <mxGeometry x="1000" y="446" width="160" height="390" as="geometry">
            <mxRectangle x="920" y="360" width="80" height="30" as="alternateBounds" />
          </mxGeometry>
        </mxCell>
        <mxCell id="SlFKmTMCJMUZYJhXCzE0-54" value="task_type_id" style="text;strokeColor=#B09500;fillColor=#e3c800;align=left;verticalAlign=middle;spacingLeft=4;spacingRight=4;overflow=hidden;points=[[0,0.5],[1,0.5]];portConstraint=eastwest;rotatable=0;whiteSpace=wrap;html=1;fontSize=16;fontColor=#000000;fontStyle=1" parent="SlFKmTMCJMUZYJhXCzE0-53" vertex="1">
          <mxGeometry y="30" width="160" height="30" as="geometry" />
        </mxCell>
        <mxCell id="SlFKmTMCJMUZYJhXCzE0-55" value="task_type_name" style="text;strokeColor=none;fillColor=none;align=left;verticalAlign=middle;spacingLeft=4;spacingRight=4;overflow=hidden;points=[[0,0.5],[1,0.5]];portConstraint=eastwest;rotatable=0;whiteSpace=wrap;html=1;fontSize=16;" parent="SlFKmTMCJMUZYJhXCzE0-53" vertex="1">
          <mxGeometry y="60" width="160" height="30" as="geometry" />
        </mxCell>
        <mxCell id="SlFKmTMCJMUZYJhXCzE0-56" value="name" style="text;strokeColor=none;fillColor=none;align=left;verticalAlign=middle;spacingLeft=4;spacingRight=4;overflow=hidden;points=[[0,0.5],[1,0.5]];portConstraint=eastwest;rotatable=0;whiteSpace=wrap;html=1;fontSize=16;" parent="SlFKmTMCJMUZYJhXCzE0-53" vertex="1">
          <mxGeometry y="90" width="160" height="30" as="geometry" />
        </mxCell>
        <mxCell id="SlFKmTMCJMUZYJhXCzE0-57" value="company" style="text;strokeColor=none;fillColor=none;align=left;verticalAlign=middle;spacingLeft=4;spacingRight=4;overflow=hidden;points=[[0,0.5],[1,0.5]];portConstraint=eastwest;rotatable=0;whiteSpace=wrap;html=1;fontSize=16;" parent="SlFKmTMCJMUZYJhXCzE0-53" vertex="1">
          <mxGeometry y="120" width="160" height="30" as="geometry" />
        </mxCell>
        <mxCell id="SlFKmTMCJMUZYJhXCzE0-58" value="interview_round" style="text;strokeColor=none;fillColor=none;align=left;verticalAlign=middle;spacingLeft=4;spacingRight=4;overflow=hidden;points=[[0,0.5],[1,0.5]];portConstraint=eastwest;rotatable=0;whiteSpace=wrap;html=1;fontSize=16;" parent="SlFKmTMCJMUZYJhXCzE0-53" vertex="1">
          <mxGeometry y="150" width="160" height="30" as="geometry" />
        </mxCell>
        <mxCell id="SlFKmTMCJMUZYJhXCzE0-59" value="job_title" style="text;strokeColor=none;fillColor=none;align=left;verticalAlign=middle;spacingLeft=4;spacingRight=4;overflow=hidden;points=[[0,0.5],[1,0.5]];portConstraint=eastwest;rotatable=0;whiteSpace=wrap;html=1;fontSize=16;" parent="SlFKmTMCJMUZYJhXCzE0-53" vertex="1">
          <mxGeometry y="180" width="160" height="30" as="geometry" />
        </mxCell>
        <mxCell id="SlFKmTMCJMUZYJhXCzE0-60" value="technology" style="text;strokeColor=none;fillColor=none;align=left;verticalAlign=middle;spacingLeft=4;spacingRight=4;overflow=hidden;points=[[0,0.5],[1,0.5]];portConstraint=eastwest;rotatable=0;whiteSpace=wrap;html=1;fontSize=16;" parent="SlFKmTMCJMUZYJhXCzE0-53" vertex="1">
          <mxGeometry y="210" width="160" height="30" as="geometry" />
        </mxCell>
        <mxCell id="SlFKmTMCJMUZYJhXCzE0-61" value="email" style="text;strokeColor=none;fillColor=none;align=left;verticalAlign=middle;spacingLeft=4;spacingRight=4;overflow=hidden;points=[[0,0.5],[1,0.5]];portConstraint=eastwest;rotatable=0;whiteSpace=wrap;html=1;fontSize=16;" parent="SlFKmTMCJMUZYJhXCzE0-53" vertex="1">
          <mxGeometry y="240" width="160" height="30" as="geometry" />
        </mxCell>
        <mxCell id="SlFKmTMCJMUZYJhXCzE0-62" value="phone" style="text;strokeColor=none;fillColor=none;align=left;verticalAlign=middle;spacingLeft=4;spacingRight=4;overflow=hidden;points=[[0,0.5],[1,0.5]];portConstraint=eastwest;rotatable=0;whiteSpace=wrap;html=1;fontSize=16;" parent="SlFKmTMCJMUZYJhXCzE0-53" vertex="1">
          <mxGeometry y="270" width="160" height="30" as="geometry" />
        </mxCell>
        <mxCell id="SlFKmTMCJMUZYJhXCzE0-63" value="deadline" style="text;strokeColor=none;fillColor=none;align=left;verticalAlign=middle;spacingLeft=4;spacingRight=4;overflow=hidden;points=[[0,0.5],[1,0.5]];portConstraint=eastwest;rotatable=0;whiteSpace=wrap;html=1;fontSize=16;" parent="SlFKmTMCJMUZYJhXCzE0-53" vertex="1">
          <mxGeometry y="300" width="160" height="30" as="geometry" />
        </mxCell>
        <mxCell id="SlFKmTMCJMUZYJhXCzE0-64" value="date_time_zone" style="text;strokeColor=none;fillColor=none;align=left;verticalAlign=middle;spacingLeft=4;spacingRight=4;overflow=hidden;points=[[0,0.5],[1,0.5]];portConstraint=eastwest;rotatable=0;whiteSpace=wrap;html=1;fontSize=16;" parent="SlFKmTMCJMUZYJhXCzE0-53" vertex="1">
          <mxGeometry y="330" width="160" height="30" as="geometry" />
        </mxCell>
        <mxCell id="SlFKmTMCJMUZYJhXCzE0-65" value="duration" style="text;strokeColor=none;fillColor=none;align=left;verticalAlign=middle;spacingLeft=4;spacingRight=4;overflow=hidden;points=[[0,0.5],[1,0.5]];portConstraint=eastwest;rotatable=0;whiteSpace=wrap;html=1;fontSize=16;" parent="SlFKmTMCJMUZYJhXCzE0-53" vertex="1">
          <mxGeometry y="360" width="160" height="30" as="geometry" />
        </mxCell>
        <mxCell id="SlFKmTMCJMUZYJhXCzE0-116" style="edgeStyle=orthogonalEdgeStyle;rounded=0;orthogonalLoop=1;jettySize=auto;html=1;exitX=1;exitY=0.5;exitDx=0;exitDy=0;entryX=0;entryY=0.5;entryDx=0;entryDy=0;strokeWidth=2;" parent="WIyWlLk6GJQsqaUBKTNV-1" source="SlFKmTMCJMUZYJhXCzE0-73" target="SlFKmTMCJMUZYJhXCzE0-51" edge="1">
          <mxGeometry relative="1" as="geometry" />
        </mxCell>
        <mxCell id="SlFKmTMCJMUZYJhXCzE0-73" value="emp_status" style="swimlane;fontStyle=0;childLayout=stackLayout;horizontal=1;startSize=30;horizontalStack=0;resizeParent=1;resizeParentMax=0;resizeLast=0;collapsible=1;marginBottom=0;whiteSpace=wrap;html=1;fontSize=16;" parent="WIyWlLk6GJQsqaUBKTNV-1" vertex="1">
          <mxGeometry x="240" y="287" width="200" height="90" as="geometry">
            <mxRectangle x="160" y="120" width="80" height="30" as="alternateBounds" />
          </mxGeometry>
        </mxCell>
        <mxCell id="SlFKmTMCJMUZYJhXCzE0-74" value="emp_status_id" style="text;strokeColor=#36393d;fillColor=#ffff88;align=left;verticalAlign=middle;spacingLeft=4;spacingRight=4;overflow=hidden;points=[[0,0.5],[1,0.5]];portConstraint=eastwest;rotatable=0;whiteSpace=wrap;html=1;fontSize=16;fontStyle=1" parent="SlFKmTMCJMUZYJhXCzE0-73" vertex="1">
          <mxGeometry y="30" width="200" height="30" as="geometry" />
        </mxCell>
        <mxCell id="SlFKmTMCJMUZYJhXCzE0-75" value="emp_status_name" style="text;strokeColor=none;fillColor=none;align=left;verticalAlign=middle;spacingLeft=4;spacingRight=4;overflow=hidden;points=[[0,0.5],[1,0.5]];portConstraint=eastwest;rotatable=0;whiteSpace=wrap;html=1;fontSize=16;" parent="SlFKmTMCJMUZYJhXCzE0-73" vertex="1">
          <mxGeometry y="60" width="200" height="30" as="geometry" />
        </mxCell>
        <mxCell id="SlFKmTMCJMUZYJhXCzE0-77" value="companies" style="swimlane;fontStyle=0;childLayout=stackLayout;horizontal=1;startSize=30;horizontalStack=0;resizeParent=1;resizeParentMax=0;resizeLast=0;collapsible=1;marginBottom=0;whiteSpace=wrap;html=1;fontSize=16;" parent="WIyWlLk6GJQsqaUBKTNV-1" vertex="1">
          <mxGeometry x="520" y="207" width="200" height="120" as="geometry">
            <mxRectangle x="510" y="120" width="80" height="30" as="alternateBounds" />
          </mxGeometry>
        </mxCell>
        <mxCell id="SlFKmTMCJMUZYJhXCzE0-78" value="company_id" style="text;strokeColor=#2D7600;fillColor=#60a917;align=left;verticalAlign=middle;spacingLeft=4;spacingRight=4;overflow=hidden;points=[[0,0.5],[1,0.5]];portConstraint=eastwest;rotatable=0;whiteSpace=wrap;html=1;fontSize=16;fontColor=#ffffff;fontStyle=1" parent="SlFKmTMCJMUZYJhXCzE0-77" vertex="1">
          <mxGeometry y="30" width="200" height="30" as="geometry" />
        </mxCell>
        <mxCell id="SlFKmTMCJMUZYJhXCzE0-79" value="company_name" style="text;strokeColor=none;fillColor=none;align=left;verticalAlign=middle;spacingLeft=4;spacingRight=4;overflow=hidden;points=[[0,0.5],[1,0.5]];portConstraint=eastwest;rotatable=0;whiteSpace=wrap;html=1;fontSize=16;" parent="SlFKmTMCJMUZYJhXCzE0-77" vertex="1">
          <mxGeometry y="60" width="200" height="30" as="geometry" />
        </mxCell>
        <mxCell id="SlFKmTMCJMUZYJhXCzE0-80" value="company_url" style="text;strokeColor=none;fillColor=none;align=left;verticalAlign=middle;spacingLeft=4;spacingRight=4;overflow=hidden;points=[[0,0.5],[1,0.5]];portConstraint=eastwest;rotatable=0;whiteSpace=wrap;html=1;fontSize=16;" parent="SlFKmTMCJMUZYJhXCzE0-77" vertex="1">
          <mxGeometry y="90" width="200" height="30" as="geometry" />
        </mxCell>
        <mxCell id="SlFKmTMCJMUZYJhXCzE0-123" style="edgeStyle=orthogonalEdgeStyle;rounded=0;orthogonalLoop=1;jettySize=auto;html=1;exitX=1;exitY=0.5;exitDx=0;exitDy=0;entryX=1;entryY=0.5;entryDx=0;entryDy=0;strokeWidth=2;" parent="WIyWlLk6GJQsqaUBKTNV-1" source="SlFKmTMCJMUZYJhXCzE0-81" target="SlFKmTMCJMUZYJhXCzE0-90" edge="1">
          <mxGeometry relative="1" as="geometry">
            <Array as="points">
              <mxPoint x="1510" y="252" />
              <mxPoint x="1510" y="452" />
            </Array>
          </mxGeometry>
        </mxCell>
        <mxCell id="SlFKmTMCJMUZYJhXCzE0-81" value="gender" style="swimlane;fontStyle=0;childLayout=stackLayout;horizontal=1;startSize=30;horizontalStack=0;resizeParent=1;resizeParentMax=0;resizeLast=0;collapsible=1;marginBottom=0;whiteSpace=wrap;html=1;fontSize=16;" parent="WIyWlLk6GJQsqaUBKTNV-1" vertex="1">
          <mxGeometry x="960" y="207" width="120" height="90" as="geometry">
            <mxRectangle x="880" y="120" width="80" height="30" as="alternateBounds" />
          </mxGeometry>
        </mxCell>
        <mxCell id="SlFKmTMCJMUZYJhXCzE0-82" value="gender_id" style="text;strokeColor=#A50040;fillColor=#d80073;align=left;verticalAlign=middle;spacingLeft=4;spacingRight=4;overflow=hidden;points=[[0,0.5],[1,0.5]];portConstraint=eastwest;rotatable=0;whiteSpace=wrap;html=1;fontSize=16;fontColor=#ffffff;fontStyle=1" parent="SlFKmTMCJMUZYJhXCzE0-81" vertex="1">
          <mxGeometry y="30" width="120" height="30" as="geometry" />
        </mxCell>
        <mxCell id="SlFKmTMCJMUZYJhXCzE0-83" value="gender_name" style="text;strokeColor=none;fillColor=none;align=left;verticalAlign=middle;spacingLeft=4;spacingRight=4;overflow=hidden;points=[[0,0.5],[1,0.5]];portConstraint=eastwest;rotatable=0;whiteSpace=wrap;html=1;fontSize=16;" parent="SlFKmTMCJMUZYJhXCzE0-81" vertex="1">
          <mxGeometry y="60" width="120" height="30" as="geometry" />
        </mxCell>
        <mxCell id="SlFKmTMCJMUZYJhXCzE0-85" value="candidates" style="swimlane;fontStyle=0;childLayout=stackLayout;horizontal=1;startSize=30;horizontalStack=0;resizeParent=1;resizeParentMax=0;resizeLast=0;collapsible=1;marginBottom=0;whiteSpace=wrap;html=1;fontSize=16;" parent="WIyWlLk6GJQsqaUBKTNV-1" vertex="1">
          <mxGeometry x="1280" y="287" width="200" height="360" as="geometry">
            <mxRectangle x="1200" y="120" width="80" height="30" as="alternateBounds" />
          </mxGeometry>
        </mxCell>
        <mxCell id="SlFKmTMCJMUZYJhXCzE0-86" value="candidate_id" style="text;strokeColor=#006EAF;fillColor=#1ba1e2;align=left;verticalAlign=middle;spacingLeft=4;spacingRight=4;overflow=hidden;points=[[0,0.5],[1,0.5]];portConstraint=eastwest;rotatable=0;whiteSpace=wrap;html=1;fontSize=16;fontColor=#ffffff;fontStyle=1" parent="SlFKmTMCJMUZYJhXCzE0-85" vertex="1">
          <mxGeometry y="30" width="200" height="30" as="geometry" />
        </mxCell>
        <mxCell id="SlFKmTMCJMUZYJhXCzE0-87" value="candidate_name" style="text;strokeColor=none;fillColor=none;align=left;verticalAlign=middle;spacingLeft=4;spacingRight=4;overflow=hidden;points=[[0,0.5],[1,0.5]];portConstraint=eastwest;rotatable=0;whiteSpace=wrap;html=1;fontSize=16;" parent="SlFKmTMCJMUZYJhXCzE0-85" vertex="1">
          <mxGeometry y="60" width="200" height="30" as="geometry" />
        </mxCell>
        <mxCell id="SlFKmTMCJMUZYJhXCzE0-88" value="candidate_phone" style="text;strokeColor=none;fillColor=none;align=left;verticalAlign=middle;spacingLeft=4;spacingRight=4;overflow=hidden;points=[[0,0.5],[1,0.5]];portConstraint=eastwest;rotatable=0;whiteSpace=wrap;html=1;fontSize=16;" parent="SlFKmTMCJMUZYJhXCzE0-85" vertex="1">
          <mxGeometry y="90" width="200" height="30" as="geometry" />
        </mxCell>
        <mxCell id="SlFKmTMCJMUZYJhXCzE0-89" value="candidate_email" style="text;strokeColor=none;fillColor=none;align=left;verticalAlign=middle;spacingLeft=4;spacingRight=4;overflow=hidden;points=[[0,0.5],[1,0.5]];portConstraint=eastwest;rotatable=0;whiteSpace=wrap;html=1;fontSize=16;" parent="SlFKmTMCJMUZYJhXCzE0-85" vertex="1">
          <mxGeometry y="120" width="200" height="30" as="geometry" />
        </mxCell>
        <mxCell id="SlFKmTMCJMUZYJhXCzE0-90" value="gender_id" style="text;strokeColor=#A50040;fillColor=#d80073;align=left;verticalAlign=middle;spacingLeft=4;spacingRight=4;overflow=hidden;points=[[0,0.5],[1,0.5]];portConstraint=eastwest;rotatable=0;whiteSpace=wrap;html=1;fontSize=16;fontColor=#ffffff;fontStyle=1" parent="SlFKmTMCJMUZYJhXCzE0-85" vertex="1">
          <mxGeometry y="150" width="200" height="30" as="geometry" />
        </mxCell>
        <mxCell id="SlFKmTMCJMUZYJhXCzE0-91" value="age" style="text;strokeColor=none;fillColor=none;align=left;verticalAlign=middle;spacingLeft=4;spacingRight=4;overflow=hidden;points=[[0,0.5],[1,0.5]];portConstraint=eastwest;rotatable=0;whiteSpace=wrap;html=1;fontSize=16;" parent="SlFKmTMCJMUZYJhXCzE0-85" vertex="1">
          <mxGeometry y="180" width="200" height="30" as="geometry" />
        </mxCell>
        <mxCell id="SlFKmTMCJMUZYJhXCzE0-92" value="education" style="text;strokeColor=none;fillColor=none;align=left;verticalAlign=middle;spacingLeft=4;spacingRight=4;overflow=hidden;points=[[0,0.5],[1,0.5]];portConstraint=eastwest;rotatable=0;whiteSpace=wrap;html=1;fontSize=16;" parent="SlFKmTMCJMUZYJhXCzE0-85" vertex="1">
          <mxGeometry y="210" width="200" height="30" as="geometry" />
        </mxCell>
        <mxCell id="SlFKmTMCJMUZYJhXCzE0-93" value="university" style="text;strokeColor=none;fillColor=none;align=left;verticalAlign=middle;spacingLeft=4;spacingRight=4;overflow=hidden;points=[[0,0.5],[1,0.5]];portConstraint=eastwest;rotatable=0;whiteSpace=wrap;html=1;fontSize=16;" parent="SlFKmTMCJMUZYJhXCzE0-85" vertex="1">
          <mxGeometry y="240" width="200" height="30" as="geometry" />
        </mxCell>
        <mxCell id="SlFKmTMCJMUZYJhXCzE0-94" value="technology" style="text;strokeColor=none;fillColor=none;align=left;verticalAlign=middle;spacingLeft=4;spacingRight=4;overflow=hidden;points=[[0,0.5],[1,0.5]];portConstraint=eastwest;rotatable=0;whiteSpace=wrap;html=1;fontSize=16;" parent="SlFKmTMCJMUZYJhXCzE0-85" vertex="1">
          <mxGeometry y="270" width="200" height="30" as="geometry" />
        </mxCell>
        <mxCell id="SlFKmTMCJMUZYJhXCzE0-95" value="total_experience_year" style="text;strokeColor=none;fillColor=none;align=left;verticalAlign=middle;spacingLeft=4;spacingRight=4;overflow=hidden;points=[[0,0.5],[1,0.5]];portConstraint=eastwest;rotatable=0;whiteSpace=wrap;html=1;fontSize=16;" parent="SlFKmTMCJMUZYJhXCzE0-85" vertex="1">
          <mxGeometry y="300" width="200" height="30" as="geometry" />
        </mxCell>
        <mxCell id="SlFKmTMCJMUZYJhXCzE0-96" value="state_id" style="text;strokeColor=#3700CC;fillColor=#6a00ff;align=left;verticalAlign=middle;spacingLeft=4;spacingRight=4;overflow=hidden;points=[[0,0.5],[1,0.5]];portConstraint=eastwest;rotatable=0;whiteSpace=wrap;html=1;fontSize=16;fontColor=#ffffff;fontStyle=1" parent="SlFKmTMCJMUZYJhXCzE0-85" vertex="1">
          <mxGeometry y="330" width="200" height="30" as="geometry" />
        </mxCell>
        <mxCell id="SlFKmTMCJMUZYJhXCzE0-97" value="states" style="swimlane;fontStyle=0;childLayout=stackLayout;horizontal=1;startSize=30;horizontalStack=0;resizeParent=1;resizeParentMax=0;resizeLast=0;collapsible=1;marginBottom=0;whiteSpace=wrap;html=1;fontSize=16;" parent="WIyWlLk6GJQsqaUBKTNV-1" vertex="1">
          <mxGeometry x="1280" y="847" width="120" height="120" as="geometry">
            <mxRectangle x="1110" y="680" width="80" height="30" as="alternateBounds" />
          </mxGeometry>
        </mxCell>
        <mxCell id="SlFKmTMCJMUZYJhXCzE0-98" value="state_id" style="text;strokeColor=#3700CC;fillColor=#6a00ff;align=left;verticalAlign=middle;spacingLeft=4;spacingRight=4;overflow=hidden;points=[[0,0.5],[1,0.5]];portConstraint=eastwest;rotatable=0;whiteSpace=wrap;html=1;fontSize=16;fontColor=#ffffff;fontStyle=1" parent="SlFKmTMCJMUZYJhXCzE0-97" vertex="1">
          <mxGeometry y="30" width="120" height="30" as="geometry" />
        </mxCell>
        <mxCell id="SlFKmTMCJMUZYJhXCzE0-99" value="state_name" style="text;strokeColor=none;fillColor=none;align=left;verticalAlign=middle;spacingLeft=4;spacingRight=4;overflow=hidden;points=[[0,0.5],[1,0.5]];portConstraint=eastwest;rotatable=0;whiteSpace=wrap;html=1;fontSize=16;" parent="SlFKmTMCJMUZYJhXCzE0-97" vertex="1">
          <mxGeometry y="60" width="120" height="30" as="geometry" />
        </mxCell>
        <mxCell id="SlFKmTMCJMUZYJhXCzE0-100" value="acronym" style="text;strokeColor=none;fillColor=none;align=left;verticalAlign=middle;spacingLeft=4;spacingRight=4;overflow=hidden;points=[[0,0.5],[1,0.5]];portConstraint=eastwest;rotatable=0;whiteSpace=wrap;html=1;fontSize=16;" parent="SlFKmTMCJMUZYJhXCzE0-97" vertex="1">
          <mxGeometry y="90" width="120" height="30" as="geometry" />
        </mxCell>
        <mxCell id="SlFKmTMCJMUZYJhXCzE0-120" style="edgeStyle=orthogonalEdgeStyle;rounded=0;orthogonalLoop=1;jettySize=auto;html=1;exitX=0;exitY=0.5;exitDx=0;exitDy=0;entryX=1;entryY=0.5;entryDx=0;entryDy=0;strokeWidth=2;" parent="WIyWlLk6GJQsqaUBKTNV-1" source="SlFKmTMCJMUZYJhXCzE0-101" target="SlFKmTMCJMUZYJhXCzE0-40" edge="1">
          <mxGeometry relative="1" as="geometry">
            <Array as="points">
              <mxPoint x="990" y="1012" />
              <mxPoint x="990" y="821" />
            </Array>
          </mxGeometry>
        </mxCell>
        <mxCell id="SlFKmTMCJMUZYJhXCzE0-101" value="task_status" style="swimlane;fontStyle=0;childLayout=stackLayout;horizontal=1;startSize=30;horizontalStack=0;resizeParent=1;resizeParentMax=0;resizeLast=0;collapsible=1;marginBottom=0;whiteSpace=wrap;html=1;fontSize=16;" parent="WIyWlLk6GJQsqaUBKTNV-1" vertex="1">
          <mxGeometry x="1000" y="967" width="160" height="90" as="geometry">
            <mxRectangle x="680" y="920" width="80" height="30" as="alternateBounds" />
          </mxGeometry>
        </mxCell>
        <mxCell id="SlFKmTMCJMUZYJhXCzE0-102" value="task_status_id" style="text;strokeColor=#C73500;fillColor=#fa6800;align=left;verticalAlign=middle;spacingLeft=4;spacingRight=4;overflow=hidden;points=[[0,0.5],[1,0.5]];portConstraint=eastwest;rotatable=0;whiteSpace=wrap;html=1;fontSize=16;fontColor=#ffffff;fontStyle=1" parent="SlFKmTMCJMUZYJhXCzE0-101" vertex="1">
          <mxGeometry y="30" width="160" height="30" as="geometry" />
        </mxCell>
        <mxCell id="SlFKmTMCJMUZYJhXCzE0-103" value="task_status_name" style="text;strokeColor=none;fillColor=none;align=left;verticalAlign=middle;spacingLeft=4;spacingRight=4;overflow=hidden;points=[[0,0.5],[1,0.5]];portConstraint=eastwest;rotatable=0;whiteSpace=wrap;html=1;fontSize=16;" parent="SlFKmTMCJMUZYJhXCzE0-101" vertex="1">
          <mxGeometry y="60" width="160" height="30" as="geometry" />
        </mxCell>
        <mxCell id="SlFKmTMCJMUZYJhXCzE0-121" style="edgeStyle=orthogonalEdgeStyle;rounded=0;orthogonalLoop=1;jettySize=auto;html=1;exitX=1;exitY=0.5;exitDx=0;exitDy=0;entryX=0;entryY=0.5;entryDx=0;entryDy=0;strokeWidth=2;" parent="WIyWlLk6GJQsqaUBKTNV-1" source="SlFKmTMCJMUZYJhXCzE0-105" target="SlFKmTMCJMUZYJhXCzE0-43" edge="1">
          <mxGeometry relative="1" as="geometry">
            <Array as="points">
              <mxPoint x="730" y="1012" />
              <mxPoint x="730" y="881" />
            </Array>
          </mxGeometry>
        </mxCell>
        <mxCell id="SlFKmTMCJMUZYJhXCzE0-105" value="result" style="swimlane;fontStyle=0;childLayout=stackLayout;horizontal=1;startSize=30;horizontalStack=0;resizeParent=1;resizeParentMax=0;resizeLast=0;collapsible=1;marginBottom=0;whiteSpace=wrap;html=1;fontSize=16;" parent="WIyWlLk6GJQsqaUBKTNV-1" vertex="1">
          <mxGeometry x="520" y="967" width="120" height="90" as="geometry">
            <mxRectangle x="360" y="760" width="80" height="30" as="alternateBounds" />
          </mxGeometry>
        </mxCell>
        <mxCell id="SlFKmTMCJMUZYJhXCzE0-106" value="result_id" style="text;strokeColor=#b46504;fillColor=#fad7ac;align=left;verticalAlign=middle;spacingLeft=4;spacingRight=4;overflow=hidden;points=[[0,0.5],[1,0.5]];portConstraint=eastwest;rotatable=0;whiteSpace=wrap;html=1;fontSize=16;fontStyle=1" parent="SlFKmTMCJMUZYJhXCzE0-105" vertex="1">
          <mxGeometry y="30" width="120" height="30" as="geometry" />
        </mxCell>
        <mxCell id="SlFKmTMCJMUZYJhXCzE0-107" value="result_name" style="text;strokeColor=none;fillColor=none;align=left;verticalAlign=middle;spacingLeft=4;spacingRight=4;overflow=hidden;points=[[0,0.5],[1,0.5]];portConstraint=eastwest;rotatable=0;whiteSpace=wrap;html=1;fontSize=16;" parent="SlFKmTMCJMUZYJhXCzE0-105" vertex="1">
          <mxGeometry y="60" width="120" height="30" as="geometry" />
        </mxCell>
        <mxCell id="SlFKmTMCJMUZYJhXCzE0-109" value="ind_status" style="swimlane;fontStyle=0;childLayout=stackLayout;horizontal=1;startSize=30;horizontalStack=0;resizeParent=1;resizeParentMax=0;resizeLast=0;collapsible=1;marginBottom=0;whiteSpace=wrap;html=1;fontSize=16;" parent="WIyWlLk6GJQsqaUBKTNV-1" vertex="1">
          <mxGeometry x="240" y="847" width="160" height="90" as="geometry">
            <mxRectangle x="160" y="600" width="80" height="30" as="alternateBounds" />
          </mxGeometry>
        </mxCell>
        <mxCell id="SlFKmTMCJMUZYJhXCzE0-110" value="ind_status_id" style="text;strokeColor=#56517e;fillColor=#d0cee2;align=left;verticalAlign=middle;spacingLeft=4;spacingRight=4;overflow=hidden;points=[[0,0.5],[1,0.5]];portConstraint=eastwest;rotatable=0;whiteSpace=wrap;html=1;fontSize=16;fontStyle=1" parent="SlFKmTMCJMUZYJhXCzE0-109" vertex="1">
          <mxGeometry y="30" width="160" height="30" as="geometry" />
        </mxCell>
        <mxCell id="SlFKmTMCJMUZYJhXCzE0-111" value="ind_status_name" style="text;strokeColor=none;fillColor=none;align=left;verticalAlign=middle;spacingLeft=4;spacingRight=4;overflow=hidden;points=[[0,0.5],[1,0.5]];portConstraint=eastwest;rotatable=0;whiteSpace=wrap;html=1;fontSize=16;" parent="SlFKmTMCJMUZYJhXCzE0-109" vertex="1">
          <mxGeometry y="60" width="160" height="30" as="geometry" />
        </mxCell>
        <mxCell id="SlFKmTMCJMUZYJhXCzE0-118" style="edgeStyle=orthogonalEdgeStyle;rounded=0;orthogonalLoop=1;jettySize=auto;html=1;exitX=1;exitY=0.5;exitDx=0;exitDy=0;entryX=0;entryY=0.5;entryDx=0;entryDy=0;strokeWidth=2;" parent="WIyWlLk6GJQsqaUBKTNV-1" source="SlFKmTMCJMUZYJhXCzE0-78" target="SlFKmTMCJMUZYJhXCzE0-28" edge="1">
          <mxGeometry relative="1" as="geometry">
            <Array as="points">
              <mxPoint x="730" y="252" />
              <mxPoint x="730" y="551" />
            </Array>
          </mxGeometry>
        </mxCell>
        <mxCell id="SlFKmTMCJMUZYJhXCzE0-119" style="edgeStyle=orthogonalEdgeStyle;rounded=0;orthogonalLoop=1;jettySize=auto;html=1;exitX=0;exitY=0.5;exitDx=0;exitDy=0;entryX=1;entryY=0.5;entryDx=0;entryDy=0;strokeWidth=2;" parent="WIyWlLk6GJQsqaUBKTNV-1" source="SlFKmTMCJMUZYJhXCzE0-54" target="SlFKmTMCJMUZYJhXCzE0-32" edge="1">
          <mxGeometry relative="1" as="geometry" />
        </mxCell>
        <mxCell id="SlFKmTMCJMUZYJhXCzE0-122" style="edgeStyle=orthogonalEdgeStyle;rounded=0;orthogonalLoop=1;jettySize=auto;html=1;entryX=1;entryY=0.467;entryDx=0;entryDy=0;strokeWidth=2;entryPerimeter=0;" parent="WIyWlLk6GJQsqaUBKTNV-1" target="SlFKmTMCJMUZYJhXCzE0-27" edge="1">
          <mxGeometry relative="1" as="geometry">
            <Array as="points">
              <mxPoint x="1280" y="332" />
              <mxPoint x="960" y="332" />
              <mxPoint x="960" y="521" />
              <mxPoint x="940" y="521" />
            </Array>
            <mxPoint x="1280" y="330" as="sourcePoint" />
            <mxPoint x="950" y="521" as="targetPoint" />
          </mxGeometry>
        </mxCell>
        <mxCell id="SlFKmTMCJMUZYJhXCzE0-126" style="edgeStyle=orthogonalEdgeStyle;rounded=0;orthogonalLoop=1;jettySize=auto;html=1;exitX=1;exitY=0.5;exitDx=0;exitDy=0;entryX=1;entryY=0.5;entryDx=0;entryDy=0;strokeWidth=2;" parent="WIyWlLk6GJQsqaUBKTNV-1" source="SlFKmTMCJMUZYJhXCzE0-98" target="SlFKmTMCJMUZYJhXCzE0-96" edge="1">
          <mxGeometry relative="1" as="geometry">
            <Array as="points">
              <mxPoint x="1510" y="892" />
              <mxPoint x="1510" y="632" />
            </Array>
          </mxGeometry>
        </mxCell>
        <mxCell id="SlFKmTMCJMUZYJhXCzE0-127" value="Vizva, SilverSpace Tech, Task Management Software Data Structure Model" style="text;strokeColor=none;fillColor=none;html=1;fontSize=33;fontStyle=1;verticalAlign=middle;align=center;" parent="WIyWlLk6GJQsqaUBKTNV-1" vertex="1">
          <mxGeometry x="790" y="58" width="100" height="40" as="geometry" />
        </mxCell>
        <mxCell id="SlFKmTMCJMUZYJhXCzE0-129" value="" style="image;html=1;image=img/lib/clip_art/computers/Database_Move_Stack_128x128.png" parent="WIyWlLk6GJQsqaUBKTNV-1" vertex="1">
          <mxGeometry x="810" y="308" width="60" height="102" as="geometry" />
        </mxCell>
        <mxCell id="SlFKmTMCJMUZYJhXCzE0-130" style="edgeStyle=orthogonalEdgeStyle;rounded=0;orthogonalLoop=1;jettySize=auto;html=1;exitX=1;exitY=0.5;exitDx=0;exitDy=0;entryX=0;entryY=0.5;entryDx=0;entryDy=0;strokeWidth=2;" parent="WIyWlLk6GJQsqaUBKTNV-1" source="SlFKmTMCJMUZYJhXCzE0-46" target="SlFKmTMCJMUZYJhXCzE0-38" edge="1">
          <mxGeometry relative="1" as="geometry">
            <Array as="points">
              <mxPoint x="730" y="572" />
              <mxPoint x="730" y="761" />
            </Array>
          </mxGeometry>
        </mxCell>
        <mxCell id="SlFKmTMCJMUZYJhXCzE0-133" style="edgeStyle=orthogonalEdgeStyle;rounded=0;orthogonalLoop=1;jettySize=auto;html=1;strokeWidth=2;" parent="WIyWlLk6GJQsqaUBKTNV-1" source="SlFKmTMCJMUZYJhXCzE0-131" edge="1">
          <mxGeometry relative="1" as="geometry">
            <mxPoint x="840" y="330" as="targetPoint" />
          </mxGeometry>
        </mxCell>
        <mxCell id="SlFKmTMCJMUZYJhXCzE0-131" value="&lt;font style=&quot;font-size: 30px;&quot; face=&quot;Verdana&quot;&gt;&lt;b&gt;tms&lt;/b&gt;&lt;/font&gt;" style="ellipse;whiteSpace=wrap;html=1;verticalAlign=top;labelBackgroundColor=default;" parent="WIyWlLk6GJQsqaUBKTNV-1" vertex="1">
          <mxGeometry x="800" y="142.5" width="80" height="80" as="geometry" />
        </mxCell>
        <mxCell id="xadqCLjYP4NTewsWqhyN-4" value="task_acknowledgement" style="swimlane;fontStyle=0;childLayout=stackLayout;horizontal=1;startSize=30;horizontalStack=0;resizeParent=1;resizeParentMax=0;resizeLast=0;collapsible=1;marginBottom=0;whiteSpace=wrap;html=1;fontSize=16;" parent="WIyWlLk6GJQsqaUBKTNV-1" vertex="1">
          <mxGeometry x="1280" y="690" width="200" height="90" as="geometry">
            <mxRectangle x="680" y="920" width="80" height="30" as="alternateBounds" />
          </mxGeometry>
        </mxCell>
        <mxCell id="xadqCLjYP4NTewsWqhyN-5" value="acknowledgement_id" style="text;strokeColor=#6D1F00;fillColor=#a0522d;align=left;verticalAlign=middle;spacingLeft=4;spacingRight=4;overflow=hidden;points=[[0,0.5],[1,0.5]];portConstraint=eastwest;rotatable=0;whiteSpace=wrap;html=1;fontSize=16;fontColor=#ffffff;fontStyle=1" parent="xadqCLjYP4NTewsWqhyN-4" vertex="1">
          <mxGeometry y="30" width="200" height="30" as="geometry" />
        </mxCell>
        <mxCell id="xadqCLjYP4NTewsWqhyN-6" value="acknowledgement_name" style="text;strokeColor=none;fillColor=none;align=left;verticalAlign=middle;spacingLeft=4;spacingRight=4;overflow=hidden;points=[[0,0.5],[1,0.5]];portConstraint=eastwest;rotatable=0;whiteSpace=wrap;html=1;fontSize=16;" parent="xadqCLjYP4NTewsWqhyN-4" vertex="1">
          <mxGeometry y="60" width="200" height="30" as="geometry" />
        </mxCell>
        <mxCell id="xadqCLjYP4NTewsWqhyN-8" style="edgeStyle=orthogonalEdgeStyle;rounded=0;orthogonalLoop=1;jettySize=auto;html=1;entryX=1;entryY=0.5;entryDx=0;entryDy=0;strokeWidth=2;" parent="WIyWlLk6GJQsqaUBKTNV-1" source="xadqCLjYP4NTewsWqhyN-5" target="xadqCLjYP4NTewsWqhyN-7" edge="1">
          <mxGeometry relative="1" as="geometry">
            <Array as="points">
              <mxPoint x="1180" y="735" />
              <mxPoint x="1180" y="1100" />
              <mxPoint x="970" y="1100" />
              <mxPoint x="970" y="911" />
            </Array>
          </mxGeometry>
        </mxCell>
        <mxCell id="82SvbfCXFY2pJlGes5kW-5" value="" style="endArrow=classic;html=1;rounded=0;exitX=0.5;exitY=0.804;exitDx=0;exitDy=0;exitPerimeter=0;entryX=0.444;entryY=-0.002;entryDx=0;entryDy=0;entryPerimeter=0;strokeWidth=2;" parent="WIyWlLk6GJQsqaUBKTNV-1" source="SlFKmTMCJMUZYJhXCzE0-129" target="SlFKmTMCJMUZYJhXCzE0-25" edge="1">
          <mxGeometry width="50" height="50" relative="1" as="geometry">
            <mxPoint x="700" y="630" as="sourcePoint" />
            <mxPoint x="750" y="580" as="targetPoint" />
          </mxGeometry>
        </mxCell>
        <mxCell id="qCeVFrvBa6YPwtFDpKTf-3" style="edgeStyle=orthogonalEdgeStyle;rounded=0;orthogonalLoop=1;jettySize=auto;html=1;entryX=1;entryY=0.5;entryDx=0;entryDy=0;strokeWidth=2;" edge="1" parent="WIyWlLk6GJQsqaUBKTNV-1" source="SlFKmTMCJMUZYJhXCzE0-110" target="SlFKmTMCJMUZYJhXCzE0-52">
          <mxGeometry relative="1" as="geometry" />
        </mxCell>
      </root>
    </mxGraphModel>
  </diagram>
</mxfile>
